999
DXF created by UltiBoard 14.2.0.0
0
SECTION
2
HEADER
9
$ACADVER
1
AC1014
9
$EXTMIN
10
-7.004000
20
-7.004000
30
0.0
9
$EXTMAX
10
7.004000
20
7.004000
30
0.0
9
$LUNITS
70
2
9
$HANDSEED
5
FA
0
ENDSEC
0
SECTION
2
TABLES
0
TABLE
2
VPORT
5
A6
100
AcDbSymbolTable
70
1
0
VPORT
5
A7
100
AcDbSymbolTableRecord
100
AcDbViewportTableRecord
2
*ACTIVE
70
0
0
ENDTAB
0
TABLE
2
LTYPE
5
A8
100
AcDbSymbolTable
70
1
0
LTYPE
5
A9
100
AcDbSymbolTableRecord
100
AcDbLinetypeTableRecord
2
BYBLOCK
70
0
3

72
65
73
0
40
0.0
0
LTYPE
5
AA
100
AcDbSymbolTableRecord
100
AcDbLinetypeTableRecord
2
BYLAYER
70
0
3

72
65
73
0
40
0.0
0
LTYPE
5
AB
100
AcDbSymbolTableRecord
100
AcDbLinetypeTableRecord
2
CONTINUOUS
70
0
3
Solid line
72
65
73
0
40
0.0
0
ENDTAB
0
TABLE
2
LAYER
5
AC
100
AcDbSymbolTable
70
4
0
LAYER
5
AD
100
AcDbSymbolTableRecord
100
AcDbLayerTableRecord
2
0
70
0
62
7
6
CONTINUOUS
0
LAYER
5
AE
100
AcDbSymbolTableRecord
100
AcDbLayerTableRecord
2
BOARD_OUTLINE
70
0
62
2
6
CONTINUOUS
0
LAYER
5
AF
100
AcDbSymbolTableRecord
100
AcDbLayerTableRecord
2
SILKSCREEN_TOP
70
0
62
4
6
CONTINUOUS
0
LAYER
5
B0
100
AcDbSymbolTableRecord
100
AcDbLayerTableRecord
2
COPPER_TOP
70
0
62
3
6
CONTINUOUS
0
ENDTAB
0
TABLE
2
STYLE
5
B1
100
AcDbSymbolTable
70
2
0
STYLE
5
B2
100
AcDbSymbolTableRecord
100
AcDbTextStyleTableRecord
2
MONOTxtStyle
70
0
40
0.0
41
1.0
50
0.0
71
0
42
0.2
3
monotxt
4

0
ENDTAB
0
TABLE
2
VIEW
5
B3
100
AcDbSymbolTable
70
0
0
ENDTAB
0
TABLE
2
UCS
5
B4
100
AcDbSymbolTable
70
0
0
ENDTAB
0
TABLE
2
APPID
5
B5
100
AcDbSymbolTable
70
1
0
APPID
5
B6
100
AcDbSymbolTableRecord
100
AcDbRegAppTableRecord
2
ACAD
70
0
0
ENDTAB
0
TABLE
2
DIMSTYLE
5
B7
100
AcDbSymbolTable
70
1
0
DIMSTYLE
105
B8
100
AcDbSymbolTableRecord
100
AcDbDimStyleTableRecord
2
STANDARD
70
0
0
ENDTAB
0
TABLE
2
BLOCK_RECORD
5
B9
100
AcDbSymbolTable
70
0
0
BLOCK_RECORD
5
BA
100
AcDbSymbolTableRecord
100
AcDbBlockTableRecord
2
*MODEL_SPACE
0
BLOCK_RECORD
5
BB
100
AcDbSymbolTableRecord
100
AcDbBlockTableRecord
2
*PAPER_SPACE
0
ENDTAB
0
ENDSEC
0
SECTION
2
BLOCKS
0
BLOCK
5
BC
100
AcDbEntity
8
0
100
AcDbBlockBegin
2
*MODEL_SPACE
70
0
0
ENDBLK
5
BD
100
AcDbEntity
8
0
100
AcDbBlockEnd
0
BLOCK
5
BE
100
AcDbEntity
8
0
100
AcDbBlockBegin
2
*PAPER_SPACE
70
0
0
ENDBLK
5
BF
100
AcDbEntity
8
0
100
AcDbBlockEnd
0
ENDSEC
0
SECTION
2
ENTITIES
0
LWPOLYLINE
5
C0
100
AcDbEntity
8
SILKSCREEN_TOP
62
4
100
AcDbPolyline
90
2
70
0
43
0.203200
39
0.203200
10
-4.500000
20
5.000000
10
4.500000
20
5.000000
0
LWPOLYLINE
5
C1
100
AcDbEntity
8
SILKSCREEN_TOP
62
4
100
AcDbPolyline
90
2
70
0
43
0.203200
39
0.203200
10
4.500000
20
5.000000
10
5.000000
20
4.500000
0
LWPOLYLINE
5
C2
100
AcDbEntity
8
SILKSCREEN_TOP
62
4
100
AcDbPolyline
90
2
70
0
43
0.203200
39
0.203200
10
5.000000
20
4.500000
10
5.000000
20
-4.500000
0
LWPOLYLINE
5
C3
100
AcDbEntity
8
SILKSCREEN_TOP
62
4
100
AcDbPolyline
90
2
70
0
43
0.203200
39
0.203200
10
5.000000
20
-4.500000
10
4.500000
20
-5.000000
0
LWPOLYLINE
5
C4
100
AcDbEntity
8
SILKSCREEN_TOP
62
4
100
AcDbPolyline
90
2
70
0
43
0.203200
39
0.203200
10
4.500000
20
-5.000000
10
-4.500000
20
-5.000000
0
LWPOLYLINE
5
C5
100
AcDbEntity
8
SILKSCREEN_TOP
62
4
100
AcDbPolyline
90
2
70
0
43
0.203200
39
0.203200
10
-4.500000
20
-5.000000
10
-5.000000
20
-4.500000
0
LWPOLYLINE
5
C6
100
AcDbEntity
8
SILKSCREEN_TOP
62
4
100
AcDbPolyline
90
2
70
0
43
0.203200
39
0.203200
10
-5.000000
20
-4.500000
10
-5.000000
20
4.500000
0
LWPOLYLINE
5
C7
100
AcDbEntity
8
SILKSCREEN_TOP
62
4
100
AcDbPolyline
90
2
70
0
43
0.203200
39
0.203200
10
-5.000000
20
4.500000
10
-4.500000
20
5.000000
0
CIRCLE
5
C8
100
AcDbEntity
8
SILKSCREEN_TOP
62
4
100
AcDbCircle
39
0.203200
10
-3.750000
20
4.000000
30
0
40
0.351600
0
SOLID
5
C9
100
AcDbEntity
8
COPPER_TOP
100
AcDbTrace
10
-6.750000
20
3.765000
30
0.000000
11
-6.750000
21
4.235000
31
0.000000
12
-5.250000
22
3.765000
32
0.000000
13
-5.250000
23
4.235000
33
0.000000
0
SOLID
5
CA
100
AcDbEntity
8
COPPER_TOP
100
AcDbTrace
10
-6.750000
20
2.965000
30
0.000000
11
-6.750000
21
3.435000
31
0.000000
12
-5.250000
22
2.965000
32
0.000000
13
-5.250000
23
3.435000
33
0.000000
0
SOLID
5
CB
100
AcDbEntity
8
COPPER_TOP
100
AcDbTrace
10
-6.750000
20
2.165000
30
0.000000
11
-6.750000
21
2.635000
31
0.000000
12
-5.250000
22
2.165000
32
0.000000
13
-5.250000
23
2.635000
33
0.000000
0
SOLID
5
CC
100
AcDbEntity
8
COPPER_TOP
100
AcDbTrace
10
-6.750000
20
1.365000
30
0.000000
11
-6.750000
21
1.835000
31
0.000000
12
-5.250000
22
1.365000
32
0.000000
13
-5.250000
23
1.835000
33
0.000000
0
SOLID
5
CD
100
AcDbEntity
8
COPPER_TOP
100
AcDbTrace
10
-6.750000
20
0.565000
30
0.000000
11
-6.750000
21
1.035000
31
0.000000
12
-5.250000
22
0.565000
32
0.000000
13
-5.250000
23
1.035000
33
0.000000
0
SOLID
5
CE
100
AcDbEntity
8
COPPER_TOP
100
AcDbTrace
10
-6.750000
20
-0.235000
30
0.000000
11
-6.750000
21
0.235000
31
0.000000
12
-5.250000
22
-0.235000
32
0.000000
13
-5.250000
23
0.235000
33
0.000000
0
SOLID
5
CF
100
AcDbEntity
8
COPPER_TOP
100
AcDbTrace
10
-6.750000
20
-1.035000
30
0.000000
11
-6.750000
21
-0.565000
31
0.000000
12
-5.250000
22
-1.035000
32
0.000000
13
-5.250000
23
-0.565000
33
0.000000
0
SOLID
5
D0
100
AcDbEntity
8
COPPER_TOP
100
AcDbTrace
10
-6.750000
20
-1.835000
30
0.000000
11
-6.750000
21
-1.365000
31
0.000000
12
-5.250000
22
-1.835000
32
0.000000
13
-5.250000
23
-1.365000
33
0.000000
0
SOLID
5
D1
100
AcDbEntity
8
COPPER_TOP
100
AcDbTrace
10
-6.750000
20
-2.635000
30
0.000000
11
-6.750000
21
-2.165000
31
0.000000
12
-5.250000
22
-2.635000
32
0.000000
13
-5.250000
23
-2.165000
33
0.000000
0
SOLID
5
D2
100
AcDbEntity
8
COPPER_TOP
100
AcDbTrace
10
-6.750000
20
-3.435000
30
0.000000
11
-6.750000
21
-2.965000
31
0.000000
12
-5.250000
22
-3.435000
32
0.000000
13
-5.250000
23
-2.965000
33
0.000000
0
SOLID
5
D3
100
AcDbEntity
8
COPPER_TOP
100
AcDbTrace
10
-6.750000
20
-4.235000
30
0.000000
11
-6.750000
21
-3.765000
31
0.000000
12
-5.250000
22
-4.235000
32
0.000000
13
-5.250000
23
-3.765000
33
0.000000
0
SOLID
5
D4
100
AcDbEntity
8
COPPER_TOP
100
AcDbTrace
10
5.250000
20
3.765000
30
0.000000
11
5.250000
21
4.235000
31
0.000000
12
6.750000
22
3.765000
32
0.000000
13
6.750000
23
4.235000
33
0.000000
0
SOLID
5
D5
100
AcDbEntity
8
COPPER_TOP
100
AcDbTrace
10
5.250000
20
2.965000
30
0.000000
11
5.250000
21
3.435000
31
0.000000
12
6.750000
22
2.965000
32
0.000000
13
6.750000
23
3.435000
33
0.000000
0
SOLID
5
D6
100
AcDbEntity
8
COPPER_TOP
100
AcDbTrace
10
5.250000
20
2.165000
30
0.000000
11
5.250000
21
2.635000
31
0.000000
12
6.750000
22
2.165000
32
0.000000
13
6.750000
23
2.635000
33
0.000000
0
SOLID
5
D7
100
AcDbEntity
8
COPPER_TOP
100
AcDbTrace
10
5.250000
20
1.365000
30
0.000000
11
5.250000
21
1.835000
31
0.000000
12
6.750000
22
1.365000
32
0.000000
13
6.750000
23
1.835000
33
0.000000
0
SOLID
5
D8
100
AcDbEntity
8
COPPER_TOP
100
AcDbTrace
10
5.250000
20
0.565000
30
0.000000
11
5.250000
21
1.035000
31
0.000000
12
6.750000
22
0.565000
32
0.000000
13
6.750000
23
1.035000
33
0.000000
0
SOLID
5
D9
100
AcDbEntity
8
COPPER_TOP
100
AcDbTrace
10
5.250000
20
-0.235000
30
0.000000
11
5.250000
21
0.235000
31
0.000000
12
6.750000
22
-0.235000
32
0.000000
13
6.750000
23
0.235000
33
0.000000
0
SOLID
5
DA
100
AcDbEntity
8
COPPER_TOP
100
AcDbTrace
10
5.250000
20
-1.035000
30
0.000000
11
5.250000
21
-0.565000
31
0.000000
12
6.750000
22
-1.035000
32
0.000000
13
6.750000
23
-0.565000
33
0.000000
0
SOLID
5
DB
100
AcDbEntity
8
COPPER_TOP
100
AcDbTrace
10
5.250000
20
-1.835000
30
0.000000
11
5.250000
21
-1.365000
31
0.000000
12
6.750000
22
-1.835000
32
0.000000
13
6.750000
23
-1.365000
33
0.000000
0
SOLID
5
DC
100
AcDbEntity
8
COPPER_TOP
100
AcDbTrace
10
5.250000
20
-2.635000
30
0.000000
11
5.250000
21
-2.165000
31
0.000000
12
6.750000
22
-2.635000
32
0.000000
13
6.750000
23
-2.165000
33
0.000000
0
SOLID
5
DD
100
AcDbEntity
8
COPPER_TOP
100
AcDbTrace
10
5.250000
20
-3.435000
30
0.000000
11
5.250000
21
-2.965000
31
0.000000
12
6.750000
22
-3.435000
32
0.000000
13
6.750000
23
-2.965000
33
0.000000
0
SOLID
5
DE
100
AcDbEntity
8
COPPER_TOP
100
AcDbTrace
10
5.250000
20
-4.235000
30
0.000000
11
5.250000
21
-3.765000
31
0.000000
12
6.750000
22
-4.235000
32
0.000000
13
6.750000
23
-3.765000
33
0.000000
0
SOLID
5
DF
100
AcDbEntity
8
COPPER_TOP
100
AcDbTrace
10
-4.235000
20
6.750000
30
0.000000
11
-3.765000
21
6.750000
31
0.000000
12
-4.235000
22
5.250000
32
0.000000
13
-3.765000
23
5.250000
33
0.000000
0
SOLID
5
E0
100
AcDbEntity
8
COPPER_TOP
100
AcDbTrace
10
-3.435000
20
6.750000
30
0.000000
11
-2.965000
21
6.750000
31
0.000000
12
-3.435000
22
5.250000
32
0.000000
13
-2.965000
23
5.250000
33
0.000000
0
SOLID
5
E1
100
AcDbEntity
8
COPPER_TOP
100
AcDbTrace
10
-2.635000
20
6.750000
30
0.000000
11
-2.165000
21
6.750000
31
0.000000
12
-2.635000
22
5.250000
32
0.000000
13
-2.165000
23
5.250000
33
0.000000
0
SOLID
5
E2
100
AcDbEntity
8
COPPER_TOP
100
AcDbTrace
10
-1.835000
20
6.750000
30
0.000000
11
-1.365000
21
6.750000
31
0.000000
12
-1.835000
22
5.250000
32
0.000000
13
-1.365000
23
5.250000
33
0.000000
0
SOLID
5
E3
100
AcDbEntity
8
COPPER_TOP
100
AcDbTrace
10
-1.035000
20
6.750000
30
0.000000
11
-0.565000
21
6.750000
31
0.000000
12
-1.035000
22
5.250000
32
0.000000
13
-0.565000
23
5.250000
33
0.000000
0
SOLID
5
E4
100
AcDbEntity
8
COPPER_TOP
100
AcDbTrace
10
-0.235000
20
6.750000
30
0.000000
11
0.235000
21
6.750000
31
0.000000
12
-0.235000
22
5.250000
32
0.000000
13
0.235000
23
5.250000
33
0.000000
0
SOLID
5
E5
100
AcDbEntity
8
COPPER_TOP
100
AcDbTrace
10
0.565000
20
6.750000
30
0.000000
11
1.035000
21
6.750000
31
0.000000
12
0.565000
22
5.250000
32
0.000000
13
1.035000
23
5.250000
33
0.000000
0
SOLID
5
E6
100
AcDbEntity
8
COPPER_TOP
100
AcDbTrace
10
1.365000
20
6.750000
30
0.000000
11
1.835000
21
6.750000
31
0.000000
12
1.365000
22
5.250000
32
0.000000
13
1.835000
23
5.250000
33
0.000000
0
SOLID
5
E7
100
AcDbEntity
8
COPPER_TOP
100
AcDbTrace
10
2.165000
20
6.750000
30
0.000000
11
2.635000
21
6.750000
31
0.000000
12
2.165000
22
5.250000
32
0.000000
13
2.635000
23
5.250000
33
0.000000
0
SOLID
5
E8
100
AcDbEntity
8
COPPER_TOP
100
AcDbTrace
10
2.965000
20
6.750000
30
0.000000
11
3.435000
21
6.750000
31
0.000000
12
2.965000
22
5.250000
32
0.000000
13
3.435000
23
5.250000
33
0.000000
0
SOLID
5
E9
100
AcDbEntity
8
COPPER_TOP
100
AcDbTrace
10
3.765000
20
6.750000
30
0.000000
11
4.235000
21
6.750000
31
0.000000
12
3.765000
22
5.250000
32
0.000000
13
4.235000
23
5.250000
33
0.000000
0
SOLID
5
EA
100
AcDbEntity
8
COPPER_TOP
100
AcDbTrace
10
-3.765000
20
-6.750000
30
0.000000
11
-4.235000
21
-6.750000
31
0.000000
12
-3.765000
22
-5.250000
32
0.000000
13
-4.235000
23
-5.250000
33
0.000000
0
SOLID
5
EB
100
AcDbEntity
8
COPPER_TOP
100
AcDbTrace
10
-2.965000
20
-6.750000
30
0.000000
11
-3.435000
21
-6.750000
31
0.000000
12
-2.965000
22
-5.250000
32
0.000000
13
-3.435000
23
-5.250000
33
0.000000
0
SOLID
5
EC
100
AcDbEntity
8
COPPER_TOP
100
AcDbTrace
10
-2.165000
20
-6.750000
30
0.000000
11
-2.635000
21
-6.750000
31
0.000000
12
-2.165000
22
-5.250000
32
0.000000
13
-2.635000
23
-5.250000
33
0.000000
0
SOLID
5
ED
100
AcDbEntity
8
COPPER_TOP
100
AcDbTrace
10
-1.365000
20
-6.750000
30
0.000000
11
-1.835000
21
-6.750000
31
0.000000
12
-1.365000
22
-5.250000
32
0.000000
13
-1.835000
23
-5.250000
33
0.000000
0
SOLID
5
EE
100
AcDbEntity
8
COPPER_TOP
100
AcDbTrace
10
-0.565000
20
-6.750000
30
0.000000
11
-1.035000
21
-6.750000
31
0.000000
12
-0.565000
22
-5.250000
32
0.000000
13
-1.035000
23
-5.250000
33
0.000000
0
SOLID
5
EF
100
AcDbEntity
8
COPPER_TOP
100
AcDbTrace
10
0.235000
20
-6.750000
30
0.000000
11
-0.235000
21
-6.750000
31
0.000000
12
0.235000
22
-5.250000
32
0.000000
13
-0.235000
23
-5.250000
33
0.000000
0
SOLID
5
F0
100
AcDbEntity
8
COPPER_TOP
100
AcDbTrace
10
1.035000
20
-6.750000
30
0.000000
11
0.565000
21
-6.750000
31
0.000000
12
1.035000
22
-5.250000
32
0.000000
13
0.565000
23
-5.250000
33
0.000000
0
SOLID
5
F1
100
AcDbEntity
8
COPPER_TOP
100
AcDbTrace
10
1.835000
20
-6.750000
30
0.000000
11
1.365000
21
-6.750000
31
0.000000
12
1.835000
22
-5.250000
32
0.000000
13
1.365000
23
-5.250000
33
0.000000
0
SOLID
5
F2
100
AcDbEntity
8
COPPER_TOP
100
AcDbTrace
10
2.635000
20
-6.750000
30
0.000000
11
2.165000
21
-6.750000
31
0.000000
12
2.635000
22
-5.250000
32
0.000000
13
2.165000
23
-5.250000
33
0.000000
0
SOLID
5
F3
100
AcDbEntity
8
COPPER_TOP
100
AcDbTrace
10
3.435000
20
-6.750000
30
0.000000
11
2.965000
21
-6.750000
31
0.000000
12
3.435000
22
-5.250000
32
0.000000
13
2.965000
23
-5.250000
33
0.000000
0
SOLID
5
F4
100
AcDbEntity
8
COPPER_TOP
100
AcDbTrace
10
4.235000
20
-6.750000
30
0.000000
11
3.765000
21
-6.750000
31
0.000000
12
4.235000
22
-5.250000
32
0.000000
13
3.765000
23
-5.250000
33
0.000000
0
ENDSEC
0
SECTION
2
OBJECTS
0
DICTIONARY
5
F5
100
AcDbDictionary
3
ACAD_GROUP
350
F6
3
ACAD_LAYOUT
350
F7
3
ACAD_MLINESTYLE
350
F8
0
DICTIONARY
5
F6
100
AcDbDictionary
0
DICTIONARY
5
F7
100
AcDbDictionary
0
DICTIONARY
5
F8
100
AcDbDictionary
3
STANDARD
350
F9
0
MLINESTYLE
5
F9
100
AcDbMlineStyle
2
Standard
70
0
3

62
256
51
90.0
52
90.0
71
2
49
0.5
62
256
6
BYLAYER
49
-0.5
62
256
6
BYLAYER
0
ENDSEC
0
EOF
